<svg width="138" height="39" xmlns="http://www.w3.org/2000/svg">
 <style type="text/css">.st0{fill:#00E676;}
        .icon_logo_white{fill:#FFFFFF;}</style>

 <g>
  <title>background</title>
  <rect fill="none" id="canvas_background" height="402" width="582" y="-1" x="-1"/>
 </g>
 <g>
  <title>Layer 1</title>
  <path id="svg_1" d="m10.7,32.8l0.6,0.3c2.5,1.5 5.3,2.2 8.1,2.2l0,0c8.8,0 16,-7.2 16,-16c0,-4.2 -1.7,-8.3 -4.7,-11.3c-3,-3 -7,-4.7 -11.3,-4.7c-8.8,0 -16,7.2 -15.9,16.1c0,3 0.9,5.9 2.4,8.4l0.4,0.6l-1.6,5.9l6,-1.5z" class="st0"/>
  <path id="svg_2" d="m32.4,6.4c-3.4,-3.5 -8.1,-5.4 -12.9,-5.4c-10.2,0 -18.4,8.3 -18.3,18.4c0,3.2 0.9,6.3 2.4,9.1l-2.6,9.5l9.7,-2.5c2.7,1.5 5.7,2.2 8.7,2.2l0,0c10.1,0 18.3,-8.3 18.3,-18.4c0,-4.9 -1.9,-9.5 -5.3,-12.9zm-12.9,28.2l0,0c-2.7,0 -5.4,-0.7 -7.7,-2.1l-0.6,-0.3l-5.8,1.5l1.5,-5.7l-0.4,-0.6c-4.4,-7.1 -2.3,-16.5 4.9,-20.9s16.5,-2.3 20.9,4.9s2.3,16.5 -4.9,20.9c-2.3,1.5 -5.1,2.3 -7.9,2.3zm8.8,-11.1l-1.1,-0.5c0,0 -1.6,-0.7 -2.6,-1.2c-0.1,0 -0.2,-0.1 -0.3,-0.1c-0.3,0 -0.5,0.1 -0.7,0.2l0,0c0,0 -0.1,0.1 -1.5,1.7c-0.1,0.2 -0.3,0.3 -0.5,0.3l-0.1,0c-0.1,0 -0.3,-0.1 -0.4,-0.2l-0.5,-0.2l0,0c-1.1,-0.5 -2.1,-1.1 -2.9,-1.9c-0.2,-0.2 -0.5,-0.4 -0.7,-0.6c-0.7,-0.7 -1.4,-1.5 -1.9,-2.4l-0.1,-0.2c-0.1,-0.1 -0.1,-0.2 -0.2,-0.4c0,-0.2 0,-0.4 0.1,-0.5c0,0 0.4,-0.5 0.7,-0.8c0.2,-0.2 0.3,-0.5 0.5,-0.7c0.2,-0.3 0.3,-0.7 0.2,-1c-0.1,-0.5 -1.3,-3.2 -1.6,-3.8c-0.2,-0.3 -0.4,-0.4 -0.7,-0.5l-0.3,0c-0.2,0 -0.5,0 -0.8,0c-0.2,0 -0.4,0.1 -0.6,0.1l-0.1,0.1c-0.2,0.1 -0.4,0.3 -0.6,0.4c-0.2,0.2 -0.3,0.4 -0.5,0.6c-0.7,0.9 -1.1,2 -1.1,3.1l0,0c0,0.8 0.2,1.6 0.5,2.3l0.1,0.3c0.9,1.9 2.1,3.6 3.7,5.1l0.4,0.4c0.3,0.3 0.6,0.5 0.8,0.8c2.1,1.8 4.5,3.1 7.2,3.8c0.3,0.1 0.7,0.1 1,0.2l0,0c0.3,0 0.7,0 1,0c0.5,0 1.1,-0.2 1.5,-0.4c0.3,-0.2 0.5,-0.2 0.7,-0.4l0.2,-0.2c0.2,-0.2 0.4,-0.3 0.6,-0.5c0.2,-0.2 0.4,-0.4 0.5,-0.6c0.2,-0.4 0.3,-0.9 0.4,-1.4c0,-0.2 0,-0.5 0,-0.7c0,0 -0.1,-0.1 -0.3,-0.2z" class="icon_logo_white"/>
  <path id="svg_3" d="m56.2,23.5l-0.1,0l-2.7,-10l-2.1,0l-2.6,10l-0.1,0l-2.3,-10l-2.5,0l3.6,13.4l2.3,0l2.7,-9.5l0.1,0l2.7,9.5l2.2,0l3.5,-13.3l-2.4,0l-2.3,9.9zm12.2,-7c-0.7,0 -1.4,0.2 -2,0.5c-0.5,0.3 -1,0.8 -1.2,1.3l-0.2,0l0,-5.5l-2.3,0l0,14.1l2.3,0l0,-5.9c0,-0.7 0.2,-1.3 0.7,-1.8c0.5,-0.5 1.1,-0.7 1.8,-0.7c0.6,0 1.2,0.2 1.6,0.6c0.4,0.5 0.6,1.1 0.5,1.7l0,6l2.4,0l0,-6.5c0.1,-1 -0.3,-2 -0.9,-2.8c-0.7,-0.7 -1.7,-1 -2.7,-1l0,0zm10,0c-1.1,0 -2.1,0.2 -3,0.8c-0.7,0.5 -1.2,1.3 -1.3,2.1l2.2,0c0.1,-0.3 0.4,-0.6 0.7,-0.8c0.4,-0.2 0.9,-0.3 1.3,-0.3c0.5,0 1,0.1 1.4,0.4c0.3,0.3 0.5,0.7 0.5,1.2l0,0.9l-2.6,0.2c-1,0 -2,0.3 -2.9,0.9c-0.7,0.5 -1,1.3 -1,2.2c0,0.8 0.3,1.6 0.9,2.2c0.7,0.6 1.5,0.9 2.4,0.8c0.6,0 1.2,-0.1 1.8,-0.4c0.5,-0.3 0.9,-0.7 1.2,-1.1l0.2,0l0,1.4l2.2,0l0,-7c0.1,-1 -0.3,-1.9 -1.1,-2.5c-0.8,-0.8 -1.9,-1.1 -2.9,-1l0,0zm1.8,6.7c0,0.6 -0.2,1.1 -0.7,1.5c-0.5,0.4 -1.1,0.6 -1.7,0.6c-0.5,0 -0.9,-0.1 -1.3,-0.4c-0.3,-0.2 -0.5,-0.6 -0.5,-1c0,-0.8 0.6,-1.3 1.9,-1.4l2.3,-0.1l0,0.8l0,0zm7.6,-8.9l-2.3,0l0,2.5l-1.7,0l0,1.8l1.7,0l0,5.5c-0.1,0.8 0.2,1.6 0.8,2.1c0.7,0.5 1.6,0.7 2.5,0.6c0.4,0 0.8,0 1.2,-0.1l0,-1.7c-0.3,0 -0.5,0 -0.8,0c-0.4,0 -0.8,-0.1 -1.1,-0.3c-0.2,-0.3 -0.4,-0.7 -0.3,-1.1l0,-5l2.2,0l0,-1.8l-2.2,0c0,0 0,-2.5 0,-2.5zm9.2,6.8l-1.8,-0.4c-0.4,-0.1 -0.8,-0.2 -1.1,-0.5c-0.2,-0.2 -0.4,-0.4 -0.4,-0.7c0,-0.4 0.2,-0.7 0.5,-0.9c0.4,-0.2 0.9,-0.4 1.3,-0.3c0.5,0 0.9,0.1 1.3,0.3c0.3,0.2 0.5,0.5 0.6,0.9l2.2,0c0,-0.9 -0.5,-1.7 -1.2,-2.2c-0.9,-0.5 -1.9,-0.8 -2.9,-0.8c-1,0 -2.1,0.3 -2.9,0.9c-0.7,0.5 -1.1,1.4 -1.1,2.2c0,0.7 0.2,1.3 0.7,1.8c0.6,0.5 1.4,0.9 2.2,1l1.8,0.4c0.9,0.2 1.4,0.6 1.4,1.2c0,0.4 -0.2,0.7 -0.5,0.9c-0.4,0.2 -0.9,0.4 -1.4,0.3c-0.5,0 -1,-0.1 -1.4,-0.3c-0.3,-0.2 -0.6,-0.5 -0.7,-0.9l-2.3,0c0,0.9 0.5,1.7 1.3,2.2c0.9,0.6 2,0.8 3,0.8c1.1,0 2.2,-0.3 3.1,-0.9c0.8,-0.5 1.2,-1.4 1.2,-2.4c0,-0.7 -0.2,-1.3 -0.7,-1.8c-0.8,-0.4 -1.5,-0.7 -2.2,-0.8l0,0zm8.4,-7.6l-4.8,13.4l2.4,0l1.2,-3.4l5,0l1.1,3.4l2.6,0l-4.8,-13.4l-2.7,0l0,0zm-0.6,8.1l1.8,-5.5l0.2,0l1.8,5.5l-3.8,0l0,0zm15.2,-5c-0.7,0 -1.3,0.2 -1.9,0.5c-0.5,0.3 -1,0.8 -1.3,1.4l-0.2,0l0,-1.7l-2.2,0l0,13.4l2.3,0l0,-4.8l0.2,0c0.3,0.5 0.7,1 1.2,1.3c0.6,0.3 1.2,0.5 1.9,0.4c1.2,0 2.3,-0.5 3,-1.4c0.8,-1.1 1.2,-2.5 1.1,-3.8c0.1,-1.4 -0.3,-2.7 -1.1,-3.8c-0.7,-1.1 -1.9,-1.6 -3,-1.5l0,0zm1.1,7.6c-0.8,1 -2.4,1.2 -3.4,0.3c-0.1,-0.1 -0.2,-0.2 -0.3,-0.3c-0.5,-0.7 -0.7,-1.5 -0.7,-2.4c0,-0.9 0.2,-1.7 0.7,-2.4c0.9,-1 2.4,-1.2 3.4,-0.3c0.1,0.1 0.2,0.2 0.3,0.3c0.5,0.7 0.7,1.6 0.7,2.4c0,0.9 -0.2,1.7 -0.7,2.4l0,0zm13.5,-6.2c-0.7,-0.9 -1.9,-1.5 -3.1,-1.4c-0.7,0 -1.3,0.2 -1.9,0.5c-0.5,0.3 -1,0.8 -1.3,1.4l-0.2,0l0,-1.7l-2.1,0l0,13.4l2.3,0l0,-4.8l0.2,0c0.2,0.5 0.6,1 1.2,1.3c0.6,0.3 1.2,0.5 1.9,0.4c1.2,0.1 2.3,-0.5 3.1,-1.4c0.8,-1.1 1.2,-2.5 1.1,-3.8c0,-1.5 -0.4,-2.8 -1.2,-3.9zm-1.9,6.2c-0.8,1 -2.4,1.2 -3.4,0.3c-0.1,-0.1 -0.2,-0.2 -0.3,-0.3c-0.5,-0.7 -0.7,-1.5 -0.7,-2.4c0,-0.9 0.2,-1.7 0.7,-2.4c0.9,-1 2.4,-1.2 3.4,-0.3c0.1,0.1 0.2,0.2 0.3,0.3c0.5,0.7 0.7,1.6 0.7,2.4c0,0.9 -0.3,1.7 -0.7,2.4l0,0z" class="icon_logo_white"/>
 </g>
</svg>